<svg width="1024" height="753" viewBox="0 0 1024 753" fill="none" xmlns="http://www.w3.org/2000/svg">
<g opacity="0.2" filter="url(#filter0_f_175_198)">
<ellipse cx="535.5" cy="92" rx="670.5" ry="350" fill="#35875D"/>
</g>
<path d="M56.0349 328C57.5302 328 58.6622 328.63 59.4308 329.891C60.2134 331.138 60.6047 332.953 60.6047 335.336C60.6047 337.719 60.2134 339.541 59.4308 340.802C58.6622 342.063 57.5302 342.693 56.0349 342.693C54.5536 342.693 53.4216 342.063 52.639 340.802C51.8564 339.541 51.4651 337.719 51.4651 335.336C51.4651 332.967 51.8564 331.152 52.639 329.891C53.4216 328.63 54.5536 328 56.0349 328ZM52.9534 335.336C52.9534 337.026 53.1072 338.35 53.4146 339.306L58.0683 330.099C57.5791 329.448 56.9013 329.122 56.0349 329.122C55.0706 329.122 54.316 329.635 53.771 330.66C53.2259 331.672 52.9534 333.23 52.9534 335.336ZM56.0349 341.55C57.0131 341.55 57.7748 341.044 58.3198 340.033C58.8648 339.008 59.1373 337.442 59.1373 335.336C59.1373 333.549 58.9627 332.163 58.6133 331.18L53.9596 340.469C54.4627 341.19 55.1545 341.55 56.0349 341.55Z" fill="url(#paint0_linear_175_198)" fill-opacity="0.6"/>
<path d="M57.2926 365.135H60.3741V366.236H52.3874V365.135H55.9511V353.455L52.5551 355.471L51.9682 354.536L56.1607 351.959H57.2926V365.135Z" fill="url(#paint1_linear_175_198)" fill-opacity="0.6"/>
<path d="M56.0349 375.502C57.5302 375.502 58.6622 376.133 59.4308 377.393C60.2134 378.64 60.6047 380.455 60.6047 382.838C60.6047 385.221 60.2134 387.043 59.4308 388.304C58.6622 389.565 57.5302 390.195 56.0349 390.195C54.5536 390.195 53.4216 389.565 52.639 388.304C51.8564 387.043 51.4651 385.221 51.4651 382.838C51.4651 380.469 51.8564 378.654 52.639 377.393C53.4216 376.133 54.5536 375.502 56.0349 375.502ZM52.9534 382.838C52.9534 384.529 53.1072 385.852 53.4146 386.808L58.0683 377.601C57.5791 376.95 56.9013 376.624 56.0349 376.624C55.0706 376.624 54.316 377.137 53.771 378.162C53.2259 379.174 52.9534 380.732 52.9534 382.838ZM56.0349 389.052C57.0131 389.052 57.7748 388.546 58.3198 387.535C58.8648 386.51 59.1373 384.944 59.1373 382.838C59.1373 381.051 58.9627 379.665 58.6133 378.682L53.9596 387.971C54.4627 388.692 55.1545 389.052 56.0349 389.052Z" fill="url(#paint2_linear_175_198)" fill-opacity="0.6"/>
<path d="M57.2926 412.637H60.3741V413.738H52.3874V412.637H55.9511V400.957L52.5551 402.973L51.9682 402.038L56.1607 399.461H57.2926V412.637Z" fill="url(#paint3_linear_175_198)" fill-opacity="0.6"/>
<path d="M57.2926 436.388H60.3741V437.489H52.3874V436.388H55.9511V424.708L52.5551 426.724L51.9682 425.789L56.1607 423.212H57.2926V436.388Z" fill="url(#paint4_linear_175_198)" fill-opacity="0.6"/>
<path d="M56.0349 446.755C57.5302 446.755 58.6622 447.386 59.4308 448.646C60.2134 449.893 60.6047 451.708 60.6047 454.091C60.6047 456.474 60.2134 458.296 59.4308 459.557C58.6622 460.818 57.5302 461.448 56.0349 461.448C54.5536 461.448 53.4216 460.818 52.639 459.557C51.8564 458.296 51.4651 456.474 51.4651 454.091C51.4651 451.722 51.8564 449.907 52.639 448.646C53.4216 447.386 54.5536 446.755 56.0349 446.755ZM52.9534 454.091C52.9534 455.782 53.1072 457.105 53.4146 458.061L58.0683 448.854C57.5791 448.203 56.9013 447.878 56.0349 447.878C55.0706 447.878 54.316 448.39 53.771 449.415C53.2259 450.427 52.9534 451.985 52.9534 454.091ZM56.0349 460.305C57.0131 460.305 57.7748 459.8 58.3198 458.788C58.8648 457.763 59.1373 456.197 59.1373 454.091C59.1373 452.304 58.9627 450.919 58.6133 449.935L53.9596 459.225C54.4627 459.945 55.1545 460.305 56.0349 460.305Z" fill="url(#paint5_linear_175_198)" fill-opacity="0.6"/>
<path d="M57.2926 483.89H60.3741V484.992H52.3874V483.89H55.9511V472.21L52.5551 474.226L51.9682 473.291L56.1607 470.714H57.2926V483.89Z" fill="url(#paint6_linear_175_198)" fill-opacity="0.6"/>
<path d="M56.0349 494.257C57.5302 494.257 58.6622 494.888 59.4308 496.149C60.2134 497.396 60.6047 499.211 60.6047 501.594C60.6047 503.977 60.2134 505.798 59.4308 507.059C58.6622 508.32 57.5302 508.95 56.0349 508.95C54.5536 508.95 53.4216 508.32 52.639 507.059C51.8564 505.798 51.4651 503.977 51.4651 501.594C51.4651 499.224 51.8564 497.409 52.639 496.149C53.4216 494.888 54.5536 494.257 56.0349 494.257ZM52.9534 501.594C52.9534 503.284 53.1072 504.607 53.4146 505.563L58.0683 496.356C57.5791 495.705 56.9013 495.38 56.0349 495.38C55.0706 495.38 54.316 495.892 53.771 496.918C53.2259 497.929 52.9534 499.488 52.9534 501.594ZM56.0349 507.807C57.0131 507.807 57.7748 507.302 58.3198 506.29C58.8648 505.265 59.1373 503.699 59.1373 501.594C59.1373 499.806 58.9627 498.421 58.6133 497.437L53.9596 506.727C54.4627 507.447 55.1545 507.807 56.0349 507.807Z" fill="url(#paint7_linear_175_198)" fill-opacity="0.6"/>
<path d="M56.0349 518.008C57.5302 518.008 58.6622 518.639 59.4308 519.9C60.2134 521.147 60.6047 522.962 60.6047 525.345C60.6047 527.728 60.2134 529.549 59.4308 530.81C58.6622 532.071 57.5302 532.701 56.0349 532.701C54.5536 532.701 53.4216 532.071 52.639 530.81C51.8564 529.549 51.4651 527.728 51.4651 525.345C51.4651 522.975 51.8564 521.16 52.639 519.9C53.4216 518.639 54.5536 518.008 56.0349 518.008ZM52.9534 525.345C52.9534 527.035 53.1072 528.358 53.4146 529.314L58.0683 520.107C57.5791 519.456 56.9013 519.131 56.0349 519.131C55.0706 519.131 54.316 519.643 53.771 520.669C53.2259 521.68 52.9534 523.239 52.9534 525.345ZM56.0349 531.558C57.0131 531.558 57.7748 531.053 58.3198 530.041C58.8648 529.016 59.1373 527.451 59.1373 525.345C59.1373 523.557 58.9627 522.172 58.6133 521.188L53.9596 530.478C54.4627 531.198 55.1545 531.558 56.0349 531.558Z" fill="url(#paint8_linear_175_198)" fill-opacity="0.6"/>
<path d="M57.2926 555.143H60.3741V556.245H52.3874V555.143H55.9511V543.464L52.5551 545.48L51.9682 544.544L56.1607 541.967H57.2926V555.143Z" fill="url(#paint9_linear_175_198)" fill-opacity="0.6"/>
<path d="M56.0349 565.511C57.5302 565.511 58.6622 566.141 59.4308 567.402C60.2134 568.649 60.6047 570.464 60.6047 572.847C60.6047 575.23 60.2134 577.052 59.4308 578.312C58.6622 579.573 57.5302 580.204 56.0349 580.204C54.5536 580.204 53.4216 579.573 52.639 578.312C51.8564 577.052 51.4651 575.23 51.4651 572.847C51.4651 570.478 51.8564 568.663 52.639 567.402C53.4216 566.141 54.5536 565.511 56.0349 565.511ZM52.9534 572.847C52.9534 574.537 53.1072 575.86 53.4146 576.816L58.0683 567.61C57.5791 566.958 56.9013 566.633 56.0349 566.633C55.0706 566.633 54.316 567.145 53.771 568.171C53.2259 569.182 52.9534 570.741 52.9534 572.847ZM56.0349 579.061C57.0131 579.061 57.7748 578.555 58.3198 577.543C58.8648 576.518 59.1373 574.953 59.1373 572.847C59.1373 571.059 58.9627 569.674 58.6133 568.69L53.9596 577.98C54.4627 578.7 55.1545 579.061 56.0349 579.061Z" fill="url(#paint10_linear_175_198)" fill-opacity="0.6"/>
<path d="M57.2926 602.645H60.3741V603.747H52.3874V602.645H55.9511V590.966L52.5551 592.982L51.9682 592.046L56.1607 589.469H57.2926V602.645Z" fill="url(#paint11_linear_175_198)" fill-opacity="0.6"/>
<path d="M57.2926 626.396H60.3741V627.498H52.3874V626.396H55.9511V614.717L52.5551 616.733L51.9682 615.798L56.1607 613.221H57.2926V626.396Z" fill="url(#paint12_linear_175_198)" fill-opacity="0.6"/>
<path d="M94.9651 375.502C96.4604 375.502 97.5924 376.133 98.361 377.393C99.1436 378.64 99.5349 380.455 99.5349 382.838C99.5349 385.221 99.1436 387.043 98.361 388.304C97.5924 389.565 96.4604 390.195 94.9651 390.195C93.4838 390.195 92.3518 389.565 91.5692 388.304C90.7866 387.043 90.3953 385.221 90.3953 382.838C90.3953 380.469 90.7866 378.654 91.5692 377.393C92.3518 376.133 93.4838 375.502 94.9651 375.502ZM91.8836 382.838C91.8836 384.529 92.0374 385.852 92.3448 386.808L96.9985 377.601C96.5093 376.95 95.8315 376.624 94.9651 376.624C94.0008 376.624 93.2462 377.137 92.7012 378.162C92.1561 379.174 91.8836 380.732 91.8836 382.838ZM94.9651 389.052C95.9433 389.052 96.705 388.546 97.25 387.535C97.795 386.51 98.0675 384.944 98.0675 382.838C98.0675 381.051 97.8928 379.665 97.5435 378.682L92.8898 387.971C93.3929 388.692 94.0847 389.052 94.9651 389.052Z" fill="url(#paint13_linear_175_198)" fill-opacity="0.6"/>
<path d="M96.2228 412.637H99.3043V413.738H91.3176V412.637H94.8812V400.957L91.4853 402.973L90.8984 402.038L95.0909 399.461H96.2228V412.637Z" fill="url(#paint14_linear_175_198)" fill-opacity="0.6"/>
<path d="M94.9651 423.004C96.4604 423.004 97.5924 423.635 98.361 424.895C99.1436 426.142 99.5349 427.957 99.5349 430.34C99.5349 432.723 99.1436 434.545 98.361 435.806C97.5924 437.067 96.4604 437.697 94.9651 437.697C93.4838 437.697 92.3518 437.067 91.5692 435.806C90.7866 434.545 90.3953 432.723 90.3953 430.34C90.3953 427.971 90.7866 426.156 91.5692 424.895C92.3518 423.635 93.4838 423.004 94.9651 423.004ZM91.8836 430.34C91.8836 432.031 92.0374 433.354 92.3448 434.31L96.9985 425.103C96.5093 424.452 95.8315 424.126 94.9651 424.126C94.0008 424.126 93.2462 424.639 92.7012 425.664C92.1561 426.676 91.8836 428.234 91.8836 430.34ZM94.9651 436.554C95.9433 436.554 96.705 436.049 97.25 435.037C97.795 434.012 98.0675 432.446 98.0675 430.34C98.0675 428.553 97.8928 427.168 97.5435 426.184L92.8898 435.474C93.3929 436.194 94.0847 436.554 94.9651 436.554Z" fill="url(#paint15_linear_175_198)" fill-opacity="0.6"/>
<path d="M94.9651 446.755C96.4604 446.755 97.5924 447.386 98.361 448.646C99.1436 449.893 99.5349 451.708 99.5349 454.091C99.5349 456.474 99.1436 458.296 98.361 459.557C97.5924 460.818 96.4604 461.448 94.9651 461.448C93.4838 461.448 92.3518 460.818 91.5692 459.557C90.7866 458.296 90.3953 456.474 90.3953 454.091C90.3953 451.722 90.7866 449.907 91.5692 448.646C92.3518 447.386 93.4838 446.755 94.9651 446.755ZM91.8836 454.091C91.8836 455.782 92.0374 457.105 92.3448 458.061L96.9985 448.854C96.5093 448.203 95.8315 447.878 94.9651 447.878C94.0008 447.878 93.2462 448.39 92.7012 449.415C92.1561 450.427 91.8836 451.985 91.8836 454.091ZM94.9651 460.305C95.9433 460.305 96.705 459.8 97.25 458.788C97.795 457.763 98.0675 456.197 98.0675 454.091C98.0675 452.304 97.8928 450.919 97.5435 449.935L92.8898 459.225C93.3929 459.945 94.0847 460.305 94.9651 460.305Z" fill="url(#paint16_linear_175_198)" fill-opacity="0.6"/>
<path d="M96.2228 483.89H99.3043V484.992H91.3176V483.89H94.8812V472.21L91.4853 474.226L90.8984 473.291L95.0909 470.714H96.2228V483.89Z" fill="url(#paint17_linear_175_198)" fill-opacity="0.6"/>
<path d="M94.9651 494.257C96.4604 494.257 97.5924 494.888 98.361 496.149C99.1436 497.396 99.5349 499.211 99.5349 501.594C99.5349 503.977 99.1436 505.798 98.361 507.059C97.5924 508.32 96.4604 508.95 94.9651 508.95C93.4838 508.95 92.3518 508.32 91.5692 507.059C90.7866 505.798 90.3953 503.977 90.3953 501.594C90.3953 499.224 90.7866 497.409 91.5692 496.149C92.3518 494.888 93.4838 494.257 94.9651 494.257ZM91.8836 501.594C91.8836 503.284 92.0374 504.607 92.3448 505.563L96.9985 496.356C96.5093 495.705 95.8315 495.38 94.9651 495.38C94.0008 495.38 93.2462 495.892 92.7012 496.918C92.1561 497.929 91.8836 499.488 91.8836 501.594ZM94.9651 507.807C95.9433 507.807 96.705 507.302 97.25 506.29C97.795 505.265 98.0675 503.699 98.0675 501.594C98.0675 499.806 97.8928 498.421 97.5435 497.437L92.8898 506.727C93.3929 507.447 94.0847 507.807 94.9651 507.807Z" fill="url(#paint18_linear_175_198)" fill-opacity="0.6"/>
<path d="M96.2228 531.392H99.3043V532.494H91.3176V531.392H94.8812V519.713L91.4853 521.728L90.8984 520.793L95.0909 518.216H96.2228V531.392Z" fill="url(#paint19_linear_175_198)" fill-opacity="0.6"/>
<path d="M94.9651 541.76C96.4604 541.76 97.5924 542.39 98.361 543.651C99.1436 544.898 99.5349 546.713 99.5349 549.096C99.5349 551.479 99.1436 553.301 98.361 554.561C97.5924 555.822 96.4604 556.453 94.9651 556.453C93.4838 556.453 92.3518 555.822 91.5692 554.561C90.7866 553.301 90.3953 551.479 90.3953 549.096C90.3953 546.726 90.7866 544.911 91.5692 543.651C92.3518 542.39 93.4838 541.76 94.9651 541.76ZM91.8836 549.096C91.8836 550.786 92.0374 552.109 92.3448 553.065L96.9985 543.859C96.5093 543.207 95.8315 542.882 94.9651 542.882C94.0008 542.882 93.2462 543.394 92.7012 544.42C92.1561 545.431 91.8836 546.99 91.8836 549.096ZM94.9651 555.31C95.9433 555.31 96.705 554.804 97.25 553.792C97.795 552.767 98.0675 551.202 98.0675 549.096C98.0675 547.308 97.8928 545.923 97.5435 544.939L92.8898 554.229C93.3929 554.949 94.0847 555.31 94.9651 555.31Z" fill="url(#paint20_linear_175_198)" fill-opacity="0.6"/>
<path d="M94.9651 565.511C96.4604 565.511 97.5924 566.141 98.361 567.402C99.1436 568.649 99.5349 570.464 99.5349 572.847C99.5349 575.23 99.1436 577.052 98.361 578.312C97.5924 579.573 96.4604 580.204 94.9651 580.204C93.4838 580.204 92.3518 579.573 91.5692 578.312C90.7866 577.052 90.3953 575.23 90.3953 572.847C90.3953 570.478 90.7866 568.663 91.5692 567.402C92.3518 566.141 93.4838 565.511 94.9651 565.511ZM91.8836 572.847C91.8836 574.537 92.0374 575.86 92.3448 576.816L96.9985 567.61C96.5093 566.958 95.8315 566.633 94.9651 566.633C94.0008 566.633 93.2462 567.145 92.7012 568.171C92.1561 569.182 91.8836 570.741 91.8836 572.847ZM94.9651 579.061C95.9433 579.061 96.705 578.555 97.25 577.543C97.795 576.518 98.0675 574.953 98.0675 572.847C98.0675 571.059 97.8928 569.674 97.5435 568.69L92.8898 577.98C93.3929 578.7 94.0847 579.061 94.9651 579.061Z" fill="url(#paint21_linear_175_198)" fill-opacity="0.6"/>
<path d="M96.2228 602.645H99.3043V603.747H91.3176V602.645H94.8812V590.966L91.4853 592.982L90.8984 592.046L95.0909 589.469H96.2228V602.645Z" fill="url(#paint22_linear_175_198)" fill-opacity="0.6"/>
<path d="M94.9651 613.013C96.4604 613.013 97.5924 613.643 98.361 614.904C99.1436 616.151 99.5349 617.966 99.5349 620.349C99.5349 622.732 99.1436 624.554 98.361 625.815C97.5924 627.075 96.4604 627.706 94.9651 627.706C93.4838 627.706 92.3518 627.075 91.5692 625.815C90.7866 624.554 90.3953 622.732 90.3953 620.349C90.3953 617.98 90.7866 616.165 91.5692 614.904C92.3518 613.643 93.4838 613.013 94.9651 613.013ZM91.8836 620.349C91.8836 622.039 92.0374 623.362 92.3448 624.318L96.9985 615.112C96.5093 614.461 95.8315 614.135 94.9651 614.135C94.0008 614.135 93.2462 614.648 92.7012 615.673C92.1561 616.684 91.8836 618.243 91.8836 620.349ZM94.9651 626.563C95.9433 626.563 96.705 626.057 97.25 625.046C97.795 624.02 98.0675 622.455 98.0675 620.349C98.0675 618.562 97.8928 617.176 97.5435 616.192L92.8898 625.482C93.3929 626.202 94.0847 626.563 94.9651 626.563Z" fill="url(#paint23_linear_175_198)" fill-opacity="0.6"/>
<path d="M96.2228 650.148H99.3043V651.249H91.3176V650.148H94.8812V638.468L91.4853 640.484L90.8984 639.549L95.0909 636.972H96.2228V650.148Z" fill="url(#paint24_linear_175_198)" fill-opacity="0.6"/>
<path d="M96.2228 673.899H99.3043V675H91.3176V673.899H94.8812V662.219L91.4853 664.235L90.8984 663.3L95.0909 660.723H96.2228V673.899Z" fill="url(#paint25_linear_175_198)" fill-opacity="0.6"/>
<path d="M36.5698 399.253C38.0651 399.253 39.1971 399.884 39.9657 401.144C40.7483 402.391 41.1396 404.206 41.1396 406.589C41.1396 408.972 40.7483 410.794 39.9657 412.055C39.1971 413.316 38.0651 413.946 36.5698 413.946C35.0885 413.946 33.9565 413.316 33.1739 412.055C32.3913 410.794 32 408.972 32 406.589C32 404.22 32.3913 402.405 33.1739 401.144C33.9565 399.884 35.0885 399.253 36.5698 399.253ZM33.4883 406.589C33.4883 408.28 33.6421 409.603 33.9495 410.559L38.6032 401.352C38.114 400.701 37.4363 400.375 36.5698 400.375C35.6055 400.375 34.8509 400.888 34.3059 401.913C33.7608 402.925 33.4883 404.483 33.4883 406.589ZM36.5698 412.803C37.5481 412.803 38.3097 412.297 38.8547 411.286C39.3997 410.261 39.6722 408.695 39.6722 406.589C39.6722 404.802 39.4976 403.417 39.1482 402.433L34.4945 411.722C34.9976 412.443 35.6894 412.803 36.5698 412.803Z" fill="url(#paint26_linear_175_198)" fill-opacity="0.6"/>
<path d="M36.5698 423.004C38.0651 423.004 39.1971 423.635 39.9657 424.895C40.7483 426.142 41.1396 427.957 41.1396 430.34C41.1396 432.723 40.7483 434.545 39.9657 435.806C39.1971 437.067 38.0651 437.697 36.5698 437.697C35.0885 437.697 33.9565 437.067 33.1739 435.806C32.3913 434.545 32 432.723 32 430.34C32 427.971 32.3913 426.156 33.1739 424.895C33.9565 423.635 35.0885 423.004 36.5698 423.004ZM33.4883 430.34C33.4883 432.031 33.6421 433.354 33.9495 434.31L38.6032 425.103C38.114 424.452 37.4363 424.126 36.5698 424.126C35.6055 424.126 34.8509 424.639 34.3059 425.664C33.7608 426.676 33.4883 428.234 33.4883 430.34ZM36.5698 436.554C37.5481 436.554 38.3097 436.049 38.8547 435.037C39.3997 434.012 39.6722 432.446 39.6722 430.34C39.6722 428.553 39.4976 427.168 39.1482 426.184L34.4945 435.474C34.9976 436.194 35.6894 436.554 36.5698 436.554Z" fill="url(#paint27_linear_175_198)" fill-opacity="0.6"/>
<path d="M37.8276 460.139H40.909V461.24H32.9223V460.139H36.486V448.459L33.09 450.475L32.5031 449.54L36.6956 446.963H37.8276V460.139Z" fill="url(#paint28_linear_175_198)" fill-opacity="0.6"/>
<path d="M36.5698 470.506C38.0651 470.506 39.1971 471.137 39.9657 472.398C40.7483 473.644 41.1396 475.459 41.1396 477.842C41.1396 480.225 40.7483 482.047 39.9657 483.308C39.1971 484.569 38.0651 485.199 36.5698 485.199C35.0885 485.199 33.9565 484.569 33.1739 483.308C32.3913 482.047 32 480.225 32 477.842C32 475.473 32.3913 473.658 33.1739 472.398C33.9565 471.137 35.0885 470.506 36.5698 470.506ZM33.4883 477.842C33.4883 479.533 33.6421 480.856 33.9495 481.812L38.6032 472.605C38.114 471.954 37.4363 471.629 36.5698 471.629C35.6055 471.629 34.8509 472.141 34.3059 473.166C33.7608 474.178 33.4883 475.737 33.4883 477.842ZM36.5698 484.056C37.5481 484.056 38.3097 483.551 38.8547 482.539C39.3997 481.514 39.6722 479.948 39.6722 477.842C39.6722 476.055 39.4976 474.67 39.1482 473.686L34.4945 482.976C34.9976 483.696 35.6894 484.056 36.5698 484.056Z" fill="url(#paint29_linear_175_198)" fill-opacity="0.6"/>
<path d="M37.8276 507.641H40.909V508.743H32.9223V507.641H36.486V495.962L33.09 497.977L32.5031 497.042L36.6956 494.465H37.8276V507.641Z" fill="url(#paint30_linear_175_198)" fill-opacity="0.6"/>
<path d="M37.8276 531.392H40.909V532.494H32.9223V531.392H36.486V519.713L33.09 521.728L32.5031 520.793L36.6956 518.216H37.8276V531.392Z" fill="url(#paint31_linear_175_198)" fill-opacity="0.6"/>
<path d="M76.7577 365.135H79.8392V366.236H71.8525V365.135H75.4162V353.455L72.0202 355.471L71.4333 354.536L75.6258 351.959H76.7577V365.135Z" fill="url(#paint32_linear_175_198)" fill-opacity="0.6"/>
<path d="M75.5 375.502C76.9953 375.502 78.1273 376.133 78.8959 377.393C79.6785 378.64 80.0698 380.455 80.0698 382.838C80.0698 385.221 79.6785 387.043 78.8959 388.304C78.1273 389.565 76.9953 390.195 75.5 390.195C74.0187 390.195 72.8867 389.565 72.1041 388.304C71.3215 387.043 70.9302 385.221 70.9302 382.838C70.9302 380.469 71.3215 378.654 72.1041 377.393C72.8867 376.133 74.0187 375.502 75.5 375.502ZM72.4185 382.838C72.4185 384.529 72.5723 385.852 72.8797 386.808L77.5334 377.601C77.0442 376.95 76.3664 376.624 75.5 376.624C74.5357 376.624 73.7811 377.137 73.2361 378.162C72.691 379.174 72.4185 380.732 72.4185 382.838ZM75.5 389.052C76.4782 389.052 77.2399 388.546 77.7849 387.535C78.3299 386.51 78.6024 384.944 78.6024 382.838C78.6024 381.051 78.4277 379.665 78.0784 378.682L73.4247 387.971C73.9278 388.692 74.6196 389.052 75.5 389.052Z" fill="url(#paint33_linear_175_198)" fill-opacity="0.6"/>
<path d="M76.7577 412.637H79.8392V413.738H71.8525V412.637H75.4162V400.957L72.0202 402.973L71.4333 402.038L75.6258 399.461H76.7577V412.637Z" fill="url(#paint34_linear_175_198)" fill-opacity="0.6"/>
<path d="M76.7577 436.388H79.8392V437.489H71.8525V436.388H75.4162V424.708L72.0202 426.724L71.4333 425.789L75.6258 423.212H76.7577V436.388Z" fill="url(#paint35_linear_175_198)" fill-opacity="0.6"/>
<path d="M75.5 446.755C76.9953 446.755 78.1273 447.386 78.8959 448.646C79.6785 449.893 80.0698 451.708 80.0698 454.091C80.0698 456.474 79.6785 458.296 78.8959 459.557C78.1273 460.818 76.9953 461.448 75.5 461.448C74.0187 461.448 72.8867 460.818 72.1041 459.557C71.3215 458.296 70.9302 456.474 70.9302 454.091C70.9302 451.722 71.3215 449.907 72.1041 448.646C72.8867 447.386 74.0187 446.755 75.5 446.755ZM72.4185 454.091C72.4185 455.782 72.5723 457.105 72.8797 458.061L77.5334 448.854C77.0442 448.203 76.3664 447.878 75.5 447.878C74.5357 447.878 73.7811 448.39 73.2361 449.415C72.691 450.427 72.4185 451.985 72.4185 454.091ZM75.5 460.305C76.4782 460.305 77.2399 459.8 77.7849 458.788C78.3299 457.763 78.6024 456.197 78.6024 454.091C78.6024 452.304 78.4277 450.919 78.0784 449.935L73.4247 459.225C73.9278 459.945 74.6196 460.305 75.5 460.305Z" fill="url(#paint36_linear_175_198)" fill-opacity="0.6"/>
<path d="M76.7577 483.89H79.8392V484.992H71.8525V483.89H75.4162V472.21L72.0202 474.226L71.4333 473.291L75.6258 470.714H76.7577V483.89Z" fill="url(#paint37_linear_175_198)" fill-opacity="0.6"/>
<path d="M76.7577 507.641H79.8392V508.743H71.8525V507.641H75.4162V495.962L72.0202 497.977L71.4333 497.042L75.6258 494.465H76.7577V507.641Z" fill="url(#paint38_linear_175_198)" fill-opacity="0.6"/>
<path d="M75.5 518.008C76.9953 518.008 78.1273 518.639 78.8959 519.9C79.6785 521.147 80.0698 522.962 80.0698 525.345C80.0698 527.728 79.6785 529.549 78.8959 530.81C78.1273 532.071 76.9953 532.701 75.5 532.701C74.0187 532.701 72.8867 532.071 72.1041 530.81C71.3215 529.549 70.9302 527.728 70.9302 525.345C70.9302 522.975 71.3215 521.16 72.1041 519.9C72.8867 518.639 74.0187 518.008 75.5 518.008ZM72.4185 525.345C72.4185 527.035 72.5723 528.358 72.8797 529.314L77.5334 520.107C77.0442 519.456 76.3664 519.131 75.5 519.131C74.5357 519.131 73.7811 519.643 73.2361 520.669C72.691 521.68 72.4185 523.239 72.4185 525.345ZM75.5 531.558C76.4782 531.558 77.2399 531.053 77.7849 530.041C78.3299 529.016 78.6024 527.451 78.6024 525.345C78.6024 523.557 78.4277 522.172 78.0784 521.188L73.4247 530.478C73.9278 531.198 74.6196 531.558 75.5 531.558Z" fill="url(#paint39_linear_175_198)" fill-opacity="0.6"/>
<path d="M76.7577 555.143H79.8392V556.245H71.8525V555.143H75.4162V543.464L72.0202 545.48L71.4333 544.544L75.6258 541.967H76.7577V555.143Z" fill="url(#paint40_linear_175_198)" fill-opacity="0.6"/>
<path d="M75.5 565.511C76.9953 565.511 78.1273 566.141 78.8959 567.402C79.6785 568.649 80.0698 570.464 80.0698 572.847C80.0698 575.23 79.6785 577.052 78.8959 578.312C78.1273 579.573 76.9953 580.204 75.5 580.204C74.0187 580.204 72.8867 579.573 72.1041 578.312C71.3215 577.052 70.9302 575.23 70.9302 572.847C70.9302 570.478 71.3215 568.663 72.1041 567.402C72.8867 566.141 74.0187 565.511 75.5 565.511ZM72.4185 572.847C72.4185 574.537 72.5723 575.86 72.8797 576.816L77.5334 567.61C77.0442 566.958 76.3664 566.633 75.5 566.633C74.5357 566.633 73.7811 567.145 73.2361 568.171C72.691 569.182 72.4185 570.741 72.4185 572.847ZM75.5 579.061C76.4782 579.061 77.2399 578.555 77.7849 577.543C78.3299 576.518 78.6024 574.953 78.6024 572.847C78.6024 571.059 78.4277 569.674 78.0784 568.69L73.4247 577.98C73.9278 578.7 74.6196 579.061 75.5 579.061Z" fill="url(#paint41_linear_175_198)" fill-opacity="0.6"/>
<path d="M114.43 351.751C115.926 351.751 117.057 352.381 117.826 353.642C118.609 354.889 119 356.704 119 359.087C119 361.47 118.609 363.292 117.826 364.553C117.057 365.814 115.926 366.444 114.43 366.444C112.949 366.444 111.817 365.814 111.034 364.553C110.252 363.292 109.86 361.47 109.86 359.087C109.86 356.718 110.252 354.903 111.034 353.642C111.817 352.381 112.949 351.751 114.43 351.751ZM111.349 359.087C111.349 360.777 111.502 362.101 111.81 363.057L116.464 353.85C115.974 353.199 115.297 352.873 114.43 352.873C113.466 352.873 112.711 353.386 112.166 354.411C111.621 355.423 111.349 356.981 111.349 359.087ZM114.43 365.301C115.408 365.301 116.17 364.795 116.715 363.784C117.26 362.759 117.533 361.193 117.533 359.087C117.533 357.3 117.358 355.914 117.009 354.931L112.355 364.22C112.858 364.941 113.55 365.301 114.43 365.301Z" fill="url(#paint42_linear_175_198)" fill-opacity="0.6"/>
<path d="M115.688 388.886H118.769V389.987H110.783V388.886H114.346V377.206L110.95 379.222L110.363 378.287L114.556 375.71H115.688V388.886Z" fill="url(#paint43_linear_175_198)" fill-opacity="0.6"/>
<path d="M115.688 412.637H118.769V413.738H110.783V412.637H114.346V400.957L110.95 402.973L110.363 402.038L114.556 399.461H115.688V412.637Z" fill="url(#paint44_linear_175_198)" fill-opacity="0.6"/>
<path d="M114.43 423.004C115.926 423.004 117.057 423.635 117.826 424.895C118.609 426.142 119 427.957 119 430.34C119 432.723 118.609 434.545 117.826 435.806C117.057 437.067 115.926 437.697 114.43 437.697C112.949 437.697 111.817 437.067 111.034 435.806C110.252 434.545 109.86 432.723 109.86 430.34C109.86 427.971 110.252 426.156 111.034 424.895C111.817 423.635 112.949 423.004 114.43 423.004ZM111.349 430.34C111.349 432.031 111.502 433.354 111.81 434.31L116.464 425.103C115.974 424.452 115.297 424.126 114.43 424.126C113.466 424.126 112.711 424.639 112.166 425.664C111.621 426.676 111.349 428.234 111.349 430.34ZM114.43 436.554C115.408 436.554 116.17 436.049 116.715 435.037C117.26 434.012 117.533 432.446 117.533 430.34C117.533 428.553 117.358 427.168 117.009 426.184L112.355 435.474C112.858 436.194 113.55 436.554 114.43 436.554Z" fill="url(#paint45_linear_175_198)" fill-opacity="0.6"/>
<path d="M114.43 446.755C115.926 446.755 117.057 447.386 117.826 448.646C118.609 449.893 119 451.708 119 454.091C119 456.474 118.609 458.296 117.826 459.557C117.057 460.818 115.926 461.448 114.43 461.448C112.949 461.448 111.817 460.818 111.034 459.557C110.252 458.296 109.86 456.474 109.86 454.091C109.86 451.722 110.252 449.907 111.034 448.646C111.817 447.386 112.949 446.755 114.43 446.755ZM111.349 454.091C111.349 455.782 111.502 457.105 111.81 458.061L116.464 448.854C115.974 448.203 115.297 447.878 114.43 447.878C113.466 447.878 112.711 448.39 112.166 449.415C111.621 450.427 111.349 451.985 111.349 454.091ZM114.43 460.305C115.408 460.305 116.17 459.8 116.715 458.788C117.26 457.763 117.533 456.197 117.533 454.091C117.533 452.304 117.358 450.919 117.009 449.935L112.355 459.225C112.858 459.945 113.55 460.305 114.43 460.305Z" fill="url(#paint46_linear_175_198)" fill-opacity="0.6"/>
<g opacity="0.6">
<path d="M942.93 28C944.356 28 945.436 28.605 946.17 29.8149C946.916 31.0115 947.29 32.7532 947.29 35.0401C947.29 37.327 946.916 39.0754 946.17 40.2853C945.436 41.4952 944.356 42.1002 942.93 42.1002C941.517 42.1002 940.437 41.4952 939.69 40.2853C938.943 39.0754 938.57 37.327 938.57 35.0401C938.57 32.7665 938.943 31.0248 939.69 29.8149C940.437 28.605 941.517 28 942.93 28ZM939.99 35.0401C939.99 36.6622 940.137 37.932 940.43 38.8494L944.87 30.0143C944.403 29.3894 943.756 29.077 942.93 29.077C942.01 29.077 941.29 29.5689 940.77 30.5528C940.25 31.5234 939.99 33.0192 939.99 35.0401ZM942.93 41.0033C943.863 41.0033 944.59 40.518 945.11 39.5474C945.63 38.5635 945.89 37.0611 945.89 35.0401C945.89 33.325 945.723 31.9954 945.39 31.0514L940.95 39.9662C941.43 40.6576 942.09 41.0033 942.93 41.0033Z" fill="url(#paint47_linear_175_198)"/>
<path d="M944.13 63.6365H947.07V64.6936H939.45V63.6365H942.85V52.4282L939.61 54.3627L939.05 53.4653L943.05 50.9922H944.13V63.6365Z" fill="url(#paint48_linear_175_198)"/>
<path d="M942.93 73.5856C944.356 73.5856 945.436 74.1906 946.17 75.4005C946.916 76.5971 947.29 78.3389 947.29 80.6257C947.29 82.9126 946.916 84.661 946.17 85.8709C945.436 87.0808 944.356 87.6858 942.93 87.6858C941.517 87.6858 940.437 87.0808 939.69 85.8709C938.943 84.661 938.57 82.9126 938.57 80.6257C938.57 78.3522 938.943 76.6104 939.69 75.4005C940.437 74.1906 941.517 73.5856 942.93 73.5856ZM939.99 80.6257C939.99 82.2478 940.137 83.5176 940.43 84.435L944.87 75.5999C944.403 74.975 943.756 74.6626 942.93 74.6626C942.01 74.6626 941.29 75.1545 940.77 76.1384C940.25 77.109 939.99 78.6048 939.99 80.6257ZM942.93 86.5889C943.863 86.5889 944.59 86.1036 945.11 85.133C945.63 84.1491 945.89 82.6467 945.89 80.6257C945.89 78.9106 945.723 77.581 945.39 76.637L940.95 85.5518C941.43 86.2432 942.09 86.5889 942.93 86.5889Z" fill="url(#paint49_linear_175_198)"/>
<path d="M944.13 109.222H947.07V110.279H939.45V109.222H942.85V98.0138L939.61 99.9483L939.05 99.0509L943.05 96.5778H944.13V109.222Z" fill="url(#paint50_linear_175_198)"/>
<path d="M944.13 132.015H947.07V133.072H939.45V132.015H942.85V120.807L939.61 122.741L939.05 121.844L943.05 119.371H944.13V132.015Z" fill="url(#paint51_linear_175_198)"/>
<path d="M942.93 141.964C944.356 141.964 945.436 142.569 946.17 143.779C946.916 144.976 947.29 146.717 947.29 149.004C947.29 151.291 946.916 153.039 946.17 154.249C945.436 155.459 944.356 156.064 942.93 156.064C941.517 156.064 940.437 155.459 939.69 154.249C938.943 153.039 938.57 151.291 938.57 149.004C938.57 146.731 938.943 144.989 939.69 143.779C940.437 142.569 941.517 141.964 942.93 141.964ZM939.99 149.004C939.99 150.626 940.137 151.896 940.43 152.813L944.87 143.978C944.403 143.353 943.756 143.041 942.93 143.041C942.01 143.041 941.29 143.533 940.77 144.517C940.25 145.487 939.99 146.983 939.99 149.004ZM942.93 154.967C943.863 154.967 944.59 154.482 945.11 153.511C945.63 152.528 945.89 151.025 945.89 149.004C945.89 147.289 945.723 145.959 945.39 145.015L940.95 153.93C941.43 154.622 942.09 154.967 942.93 154.967Z" fill="url(#paint52_linear_175_198)"/>
<path d="M944.13 177.601H947.07V178.658H939.45V177.601H942.85V166.392L939.61 168.327L939.05 167.429L943.05 164.956H944.13V177.601Z" fill="url(#paint53_linear_175_198)"/>
<path d="M942.93 187.55C944.356 187.55 945.436 188.155 946.17 189.365C946.916 190.561 947.29 192.303 947.29 194.59C947.29 196.877 946.916 198.625 946.17 199.835C945.436 201.045 944.356 201.65 942.93 201.65C941.517 201.65 940.437 201.045 939.69 199.835C938.943 198.625 938.57 196.877 938.57 194.59C938.57 192.316 938.943 190.574 939.69 189.365C940.437 188.155 941.517 187.55 942.93 187.55ZM939.99 194.59C939.99 196.212 940.137 197.482 940.43 198.399L944.87 189.564C944.403 188.939 943.756 188.627 942.93 188.627C942.01 188.627 941.29 189.119 940.77 190.102C940.25 191.073 939.99 192.569 939.99 194.59ZM942.93 200.553C943.863 200.553 944.59 200.068 945.11 199.097C945.63 198.113 945.89 196.611 945.89 194.59C945.89 192.875 945.723 191.545 945.39 190.601L940.95 199.516C941.43 200.207 942.09 200.553 942.93 200.553Z" fill="url(#paint54_linear_175_198)"/>
<path d="M942.93 210.342C944.356 210.342 945.436 210.947 946.17 212.157C946.916 213.354 947.29 215.096 947.29 217.383C947.29 219.669 946.916 221.418 946.17 222.628C945.436 223.838 944.356 224.443 942.93 224.443C941.517 224.443 940.437 223.838 939.69 222.628C938.943 221.418 938.57 219.669 938.57 217.383C938.57 215.109 938.943 213.367 939.69 212.157C940.437 210.947 941.517 210.342 942.93 210.342ZM939.99 217.383C939.99 219.005 940.137 220.274 940.43 221.192L944.87 212.357C944.403 211.732 943.756 211.419 942.93 211.419C942.01 211.419 941.29 211.911 940.77 212.895C940.25 213.866 939.99 215.362 939.99 217.383ZM942.93 223.346C943.863 223.346 944.59 222.86 945.11 221.89C945.63 220.906 945.89 219.404 945.89 217.383C945.89 215.667 945.723 214.338 945.39 213.394L940.95 222.309C941.43 223 942.09 223.346 942.93 223.346Z" fill="url(#paint55_linear_175_198)"/>
<path d="M944.13 245.979H947.07V247.036H939.45V245.979H942.85V234.771L939.61 236.705L939.05 235.808L943.05 233.335H944.13V245.979Z" fill="url(#paint56_linear_175_198)"/>
<path d="M942.93 255.928C944.356 255.928 945.436 256.533 946.17 257.743C946.916 258.94 947.29 260.681 947.29 262.968C947.29 265.255 946.916 267.003 946.17 268.213C945.436 269.423 944.356 270.028 942.93 270.028C941.517 270.028 940.437 269.423 939.69 268.213C938.943 267.003 938.57 265.255 938.57 262.968C938.57 260.695 938.943 258.953 939.69 257.743C940.437 256.533 941.517 255.928 942.93 255.928ZM939.99 262.968C939.99 264.59 940.137 265.86 940.43 266.777L944.87 257.942C944.403 257.317 943.756 257.005 942.93 257.005C942.01 257.005 941.29 257.497 940.77 258.481C940.25 259.451 939.99 260.947 939.99 262.968ZM942.93 268.931C943.863 268.931 944.59 268.446 945.11 267.475C945.63 266.492 945.89 264.989 945.89 262.968C945.89 261.253 945.723 259.923 945.39 258.979L940.95 267.894C941.43 268.586 942.09 268.931 942.93 268.931Z" fill="url(#paint57_linear_175_198)"/>
<path d="M944.13 291.565H947.07V292.622H939.45V291.565H942.85V280.356L939.61 282.291L939.05 281.393L943.05 278.92H944.13V291.565Z" fill="url(#paint58_linear_175_198)"/>
<path d="M944.13 314.357H947.07V315.414H939.45V314.357H942.85V303.149L939.61 305.084L939.05 304.186L943.05 301.713H944.13V314.357Z" fill="url(#paint59_linear_175_198)"/>
<path d="M980.07 73.5856C981.497 73.5856 982.577 74.1906 983.31 75.4005C984.057 76.5971 984.43 78.3389 984.43 80.6257C984.43 82.9126 984.057 84.661 983.31 85.8709C982.577 87.0808 981.497 87.6858 980.07 87.6858C978.657 87.6858 977.577 87.0808 976.83 85.8709C976.084 84.661 975.71 82.9126 975.71 80.6257C975.71 78.3522 976.084 76.6104 976.83 75.4005C977.577 74.1906 978.657 73.5856 980.07 73.5856ZM977.13 80.6257C977.13 82.2478 977.277 83.5176 977.57 84.435L982.01 75.5999C981.543 74.975 980.897 74.6626 980.07 74.6626C979.15 74.6626 978.43 75.1545 977.91 76.1384C977.39 77.109 977.13 78.6048 977.13 80.6257ZM980.07 86.5889C981.003 86.5889 981.73 86.1036 982.25 85.133C982.77 84.1491 983.03 82.6467 983.03 80.6257C983.03 78.9106 982.863 77.581 982.53 76.637L978.09 85.5518C978.57 86.2432 979.23 86.5889 980.07 86.5889Z" fill="url(#paint60_linear_175_198)"/>
<path d="M981.27 109.222H984.21V110.279H976.59V109.222H979.99V98.0138L976.75 99.9483L976.19 99.0509L980.19 96.5778H981.27V109.222Z" fill="url(#paint61_linear_175_198)"/>
<path d="M980.07 119.171C981.497 119.171 982.577 119.776 983.31 120.986C984.057 122.183 984.43 123.924 984.43 126.211C984.43 128.498 984.057 130.247 983.31 131.457C982.577 132.666 981.497 133.271 980.07 133.271C978.657 133.271 977.577 132.666 976.83 131.457C976.084 130.247 975.71 128.498 975.71 126.211C975.71 123.938 976.084 122.196 976.83 120.986C977.577 119.776 978.657 119.171 980.07 119.171ZM977.13 126.211C977.13 127.833 977.277 129.103 977.57 130.021L982.01 121.186C981.543 120.561 980.897 120.248 980.07 120.248C979.15 120.248 978.43 120.74 977.91 121.724C977.39 122.695 977.13 124.19 977.13 126.211ZM980.07 132.174C981.003 132.174 981.73 131.689 982.25 130.719C982.77 129.735 983.03 128.232 983.03 126.211C983.03 124.496 982.863 123.167 982.53 122.223L978.09 131.137C978.57 131.829 979.23 132.174 980.07 132.174Z" fill="url(#paint62_linear_175_198)"/>
<path d="M980.07 141.964C981.497 141.964 982.577 142.569 983.31 143.779C984.057 144.976 984.43 146.717 984.43 149.004C984.43 151.291 984.057 153.039 983.31 154.249C982.577 155.459 981.497 156.064 980.07 156.064C978.657 156.064 977.577 155.459 976.83 154.249C976.084 153.039 975.71 151.291 975.71 149.004C975.71 146.731 976.084 144.989 976.83 143.779C977.577 142.569 978.657 141.964 980.07 141.964ZM977.13 149.004C977.13 150.626 977.277 151.896 977.57 152.813L982.01 143.978C981.543 143.353 980.897 143.041 980.07 143.041C979.15 143.041 978.43 143.533 977.91 144.517C977.39 145.487 977.13 146.983 977.13 149.004ZM980.07 154.967C981.003 154.967 981.73 154.482 982.25 153.511C982.77 152.528 983.03 151.025 983.03 149.004C983.03 147.289 982.863 145.959 982.53 145.015L978.09 153.93C978.57 154.622 979.23 154.967 980.07 154.967Z" fill="url(#paint63_linear_175_198)"/>
<path d="M981.27 177.601H984.21V178.658H976.59V177.601H979.99V166.392L976.75 168.327L976.19 167.429L980.19 164.956H981.27V177.601Z" fill="url(#paint64_linear_175_198)"/>
<path d="M980.07 187.55C981.497 187.55 982.577 188.155 983.31 189.365C984.057 190.561 984.43 192.303 984.43 194.59C984.43 196.877 984.057 198.625 983.31 199.835C982.577 201.045 981.497 201.65 980.07 201.65C978.657 201.65 977.577 201.045 976.83 199.835C976.084 198.625 975.71 196.877 975.71 194.59C975.71 192.316 976.084 190.574 976.83 189.365C977.577 188.155 978.657 187.55 980.07 187.55ZM977.13 194.59C977.13 196.212 977.277 197.482 977.57 198.399L982.01 189.564C981.543 188.939 980.897 188.627 980.07 188.627C979.15 188.627 978.43 189.119 977.91 190.102C977.39 191.073 977.13 192.569 977.13 194.59ZM980.07 200.553C981.003 200.553 981.73 200.068 982.25 199.097C982.77 198.113 983.03 196.611 983.03 194.59C983.03 192.875 982.863 191.545 982.53 190.601L978.09 199.516C978.57 200.207 979.23 200.553 980.07 200.553Z" fill="url(#paint65_linear_175_198)"/>
<path d="M981.27 223.186H984.21V224.243H976.59V223.186H979.99V211.978L976.75 213.912L976.19 213.015L980.19 210.542H981.27V223.186Z" fill="url(#paint66_linear_175_198)"/>
<path d="M980.07 233.135C981.497 233.135 982.577 233.74 983.31 234.95C984.057 236.147 984.43 237.888 984.43 240.175C984.43 242.462 984.057 244.211 983.31 245.421C982.577 246.63 981.497 247.235 980.07 247.235C978.657 247.235 977.577 246.63 976.83 245.421C976.084 244.211 975.71 242.462 975.71 240.175C975.71 237.902 976.084 236.16 976.83 234.95C977.577 233.74 978.657 233.135 980.07 233.135ZM977.13 240.175C977.13 241.797 977.277 243.067 977.57 243.985L982.01 235.15C981.543 234.525 980.897 234.212 980.07 234.212C979.15 234.212 978.43 234.704 977.91 235.688C977.39 236.659 977.13 238.154 977.13 240.175ZM980.07 246.139C981.003 246.139 981.73 245.653 982.25 244.683C982.77 243.699 983.03 242.196 983.03 240.175C983.03 238.46 982.863 237.131 982.53 236.187L978.09 245.101C978.57 245.793 979.23 246.139 980.07 246.139Z" fill="url(#paint67_linear_175_198)"/>
<path d="M980.07 255.928C981.497 255.928 982.577 256.533 983.31 257.743C984.057 258.94 984.43 260.681 984.43 262.968C984.43 265.255 984.057 267.003 983.31 268.213C982.577 269.423 981.497 270.028 980.07 270.028C978.657 270.028 977.577 269.423 976.83 268.213C976.084 267.003 975.71 265.255 975.71 262.968C975.71 260.695 976.084 258.953 976.83 257.743C977.577 256.533 978.657 255.928 980.07 255.928ZM977.13 262.968C977.13 264.59 977.277 265.86 977.57 266.777L982.01 257.942C981.543 257.317 980.897 257.005 980.07 257.005C979.15 257.005 978.43 257.497 977.91 258.481C977.39 259.451 977.13 260.947 977.13 262.968ZM980.07 268.931C981.003 268.931 981.73 268.446 982.25 267.475C982.77 266.492 983.03 264.989 983.03 262.968C983.03 261.253 982.863 259.923 982.53 258.979L978.09 267.894C978.57 268.586 979.23 268.931 980.07 268.931Z" fill="url(#paint68_linear_175_198)"/>
<path d="M981.27 291.565H984.21V292.622H976.59V291.565H979.99V280.356L976.75 282.291L976.19 281.393L980.19 278.92H981.27V291.565Z" fill="url(#paint69_linear_175_198)"/>
<path d="M980.07 301.514C981.497 301.514 982.577 302.119 983.31 303.329C984.057 304.525 984.43 306.267 984.43 308.554C984.43 310.841 984.057 312.589 983.31 313.799C982.577 315.009 981.497 315.614 980.07 315.614C978.657 315.614 977.577 315.009 976.83 313.799C976.084 312.589 975.71 310.841 975.71 308.554C975.71 306.28 976.084 304.538 976.83 303.329C977.577 302.119 978.657 301.514 980.07 301.514ZM977.13 308.554C977.13 310.176 977.277 311.446 977.57 312.363L982.01 303.528C981.543 302.903 980.897 302.591 980.07 302.591C979.15 302.591 978.43 303.083 977.91 304.066C977.39 305.037 977.13 306.533 977.13 308.554ZM980.07 314.517C981.003 314.517 981.73 314.032 982.25 313.061C982.77 312.077 983.03 310.575 983.03 308.554C983.03 306.839 982.863 305.509 982.53 304.565L978.09 313.48C978.57 314.171 979.23 314.517 980.07 314.517Z" fill="url(#paint70_linear_175_198)"/>
<path d="M981.27 337.15H984.21V338.207H976.59V337.15H979.99V325.942L976.75 327.876L976.19 326.979L980.19 324.506H981.27V337.15Z" fill="url(#paint71_linear_175_198)"/>
<path d="M981.27 359.943H984.21V361H976.59V359.943H979.99V348.735L976.75 350.669L976.19 349.772L980.19 347.299H981.27V359.943Z" fill="url(#paint72_linear_175_198)"/>
<path d="M924.36 96.3784C925.786 96.3784 926.866 96.9834 927.599 98.1933C928.346 99.3899 928.719 101.132 928.719 103.419C928.719 105.705 928.346 107.454 927.599 108.664C926.866 109.874 925.786 110.479 924.36 110.479C922.946 110.479 921.867 109.874 921.12 108.664C920.373 107.454 920 105.705 920 103.419C920 101.145 920.373 99.4032 921.12 98.1933C921.867 96.9834 922.946 96.3784 924.36 96.3784ZM921.42 103.419C921.42 105.041 921.567 106.31 921.86 107.228L926.3 98.3927C925.833 97.7678 925.186 97.4554 924.36 97.4554C923.44 97.4554 922.72 97.9473 922.2 98.9312C921.68 99.9018 921.42 101.398 921.42 103.419ZM924.36 109.382C925.293 109.382 926.02 108.896 926.54 107.926C927.06 106.942 927.319 105.44 927.319 103.419C927.319 101.703 927.153 100.374 926.82 99.4298L922.38 108.345C922.86 109.036 923.52 109.382 924.36 109.382Z" fill="url(#paint73_linear_175_198)"/>
<path d="M924.36 119.171C925.786 119.171 926.866 119.776 927.599 120.986C928.346 122.183 928.719 123.924 928.719 126.211C928.719 128.498 928.346 130.247 927.599 131.457C926.866 132.666 925.786 133.271 924.36 133.271C922.946 133.271 921.867 132.666 921.12 131.457C920.373 130.247 920 128.498 920 126.211C920 123.938 920.373 122.196 921.12 120.986C921.867 119.776 922.946 119.171 924.36 119.171ZM921.42 126.211C921.42 127.833 921.567 129.103 921.86 130.021L926.3 121.186C925.833 120.561 925.186 120.248 924.36 120.248C923.44 120.248 922.72 120.74 922.2 121.724C921.68 122.695 921.42 124.19 921.42 126.211ZM924.36 132.174C925.293 132.174 926.02 131.689 926.54 130.719C927.06 129.735 927.319 128.232 927.319 126.211C927.319 124.496 927.153 123.167 926.82 122.223L922.38 131.137C922.86 131.829 923.52 132.174 924.36 132.174Z" fill="url(#paint74_linear_175_198)"/>
<path d="M925.56 154.808H928.499V155.865H920.88V154.808H924.28V143.599L921.04 145.534L920.48 144.636L924.48 142.163H925.56V154.808Z" fill="url(#paint75_linear_175_198)"/>
<path d="M924.36 164.757C925.786 164.757 926.866 165.362 927.599 166.572C928.346 167.768 928.719 169.51 928.719 171.797C928.719 174.084 928.346 175.832 927.599 177.042C926.866 178.252 925.786 178.857 924.36 178.857C922.946 178.857 921.867 178.252 921.12 177.042C920.373 175.832 920 174.084 920 171.797C920 169.523 920.373 167.782 921.12 166.572C921.867 165.362 922.946 164.757 924.36 164.757ZM921.42 171.797C921.42 173.419 921.567 174.689 921.86 175.606L926.3 166.771C925.833 166.146 925.186 165.834 924.36 165.834C923.44 165.834 922.72 166.326 922.2 167.31C921.68 168.28 921.42 169.776 921.42 171.797ZM924.36 177.76C925.293 177.76 926.02 177.275 926.54 176.304C927.06 175.32 927.319 173.818 927.319 171.797C927.319 170.082 927.153 168.752 926.82 167.808L922.38 176.723C922.86 177.414 923.52 177.76 924.36 177.76Z" fill="url(#paint76_linear_175_198)"/>
<path d="M925.56 200.393H928.499V201.45H920.88V200.393H924.28V189.185L921.04 191.12L920.48 190.222L924.48 187.749H925.56V200.393Z" fill="url(#paint77_linear_175_198)"/>
<path d="M925.56 223.186H928.499V224.243H920.88V223.186H924.28V211.978L921.04 213.912L920.48 213.015L924.48 210.542H925.56V223.186Z" fill="url(#paint78_linear_175_198)"/>
<path d="M962.7 63.6365H965.64V64.6936H958.02V63.6365H961.42V52.4282L958.18 54.3627L957.62 53.4653L961.62 50.9922H962.7V63.6365Z" fill="url(#paint79_linear_175_198)"/>
<path d="M961.5 73.5856C962.927 73.5856 964.006 74.1906 964.74 75.4005C965.486 76.5971 965.86 78.3389 965.86 80.6257C965.86 82.9126 965.486 84.661 964.74 85.8709C964.006 87.0808 962.927 87.6858 961.5 87.6858C960.087 87.6858 959.007 87.0808 958.26 85.8709C957.514 84.661 957.14 82.9126 957.14 80.6257C957.14 78.3522 957.514 76.6104 958.26 75.4005C959.007 74.1906 960.087 73.5856 961.5 73.5856ZM958.56 80.6257C958.56 82.2478 958.707 83.5176 959 84.435L963.44 75.5999C962.973 74.975 962.327 74.6626 961.5 74.6626C960.58 74.6626 959.86 75.1545 959.34 76.1384C958.82 77.109 958.56 78.6048 958.56 80.6257ZM961.5 86.5889C962.433 86.5889 963.16 86.1036 963.68 85.133C964.2 84.1491 964.46 82.6467 964.46 80.6257C964.46 78.9106 964.293 77.581 963.96 76.637L959.52 85.5518C960 86.2432 960.66 86.5889 961.5 86.5889Z" fill="url(#paint80_linear_175_198)"/>
<path d="M962.7 109.222H965.64V110.279H958.02V109.222H961.42V98.0138L958.18 99.9483L957.62 99.0509L961.62 96.5778H962.7V109.222Z" fill="url(#paint81_linear_175_198)"/>
<path d="M962.7 132.015H965.64V133.072H958.02V132.015H961.42V120.807L958.18 122.741L957.62 121.844L961.62 119.371H962.7V132.015Z" fill="url(#paint82_linear_175_198)"/>
<path d="M961.5 141.964C962.927 141.964 964.006 142.569 964.74 143.779C965.486 144.976 965.86 146.717 965.86 149.004C965.86 151.291 965.486 153.039 964.74 154.249C964.006 155.459 962.927 156.064 961.5 156.064C960.087 156.064 959.007 155.459 958.26 154.249C957.514 153.039 957.14 151.291 957.14 149.004C957.14 146.731 957.514 144.989 958.26 143.779C959.007 142.569 960.087 141.964 961.5 141.964ZM958.56 149.004C958.56 150.626 958.707 151.896 959 152.813L963.44 143.978C962.973 143.353 962.327 143.041 961.5 143.041C960.58 143.041 959.86 143.533 959.34 144.517C958.82 145.487 958.56 146.983 958.56 149.004ZM961.5 154.967C962.433 154.967 963.16 154.482 963.68 153.511C964.2 152.528 964.46 151.025 964.46 149.004C964.46 147.289 964.293 145.959 963.96 145.015L959.52 153.93C960 154.622 960.66 154.967 961.5 154.967Z" fill="url(#paint83_linear_175_198)"/>
<path d="M962.7 177.601H965.64V178.658H958.02V177.601H961.42V166.392L958.18 168.327L957.62 167.429L961.62 164.956H962.7V177.601Z" fill="url(#paint84_linear_175_198)"/>
<path d="M962.7 200.393H965.64V201.45H958.02V200.393H961.42V189.185L958.18 191.12L957.62 190.222L961.62 187.749H962.7V200.393Z" fill="url(#paint85_linear_175_198)"/>
<path d="M961.5 210.342C962.927 210.342 964.006 210.947 964.74 212.157C965.486 213.354 965.86 215.096 965.86 217.383C965.86 219.669 965.486 221.418 964.74 222.628C964.006 223.838 962.927 224.443 961.5 224.443C960.087 224.443 959.007 223.838 958.26 222.628C957.514 221.418 957.14 219.669 957.14 217.383C957.14 215.109 957.514 213.367 958.26 212.157C959.007 210.947 960.087 210.342 961.5 210.342ZM958.56 217.383C958.56 219.005 958.707 220.274 959 221.192L963.44 212.357C962.973 211.732 962.327 211.419 961.5 211.419C960.58 211.419 959.86 211.911 959.34 212.895C958.82 213.866 958.56 215.362 958.56 217.383ZM961.5 223.346C962.433 223.346 963.16 222.86 963.68 221.89C964.2 220.906 964.46 219.404 964.46 217.383C964.46 215.667 964.293 214.338 963.96 213.394L959.52 222.309C960 223 960.66 223.346 961.5 223.346Z" fill="url(#paint86_linear_175_198)"/>
<path d="M962.7 245.979H965.64V247.036H958.02V245.979H961.42V234.771L958.18 236.705L957.62 235.808L961.62 233.335H962.7V245.979Z" fill="url(#paint87_linear_175_198)"/>
<path d="M961.5 255.928C962.927 255.928 964.006 256.533 964.74 257.743C965.486 258.94 965.86 260.681 965.86 262.968C965.86 265.255 965.486 267.003 964.74 268.213C964.006 269.423 962.927 270.028 961.5 270.028C960.087 270.028 959.007 269.423 958.26 268.213C957.514 267.003 957.14 265.255 957.14 262.968C957.14 260.695 957.514 258.953 958.26 257.743C959.007 256.533 960.087 255.928 961.5 255.928ZM958.56 262.968C958.56 264.59 958.707 265.86 959 266.777L963.44 257.942C962.973 257.317 962.327 257.005 961.5 257.005C960.58 257.005 959.86 257.497 959.34 258.481C958.82 259.451 958.56 260.947 958.56 262.968ZM961.5 268.931C962.433 268.931 963.16 268.446 963.68 267.475C964.2 266.492 964.46 264.989 964.46 262.968C964.46 261.253 964.293 259.923 963.96 258.979L959.52 267.894C960 268.586 960.66 268.931 961.5 268.931Z" fill="url(#paint88_linear_175_198)"/>
<path d="M998.64 50.7928C1000.07 50.7928 1001.15 51.3978 1001.88 52.6077C1002.63 53.8043 1003 55.5461 1003 57.8329C1003 60.1198 1002.63 61.8682 1001.88 63.0781C1001.15 64.288 1000.07 64.893 998.64 64.893C997.227 64.893 996.147 64.288 995.401 63.0781C994.654 61.8682 994.281 60.1198 994.281 57.8329C994.281 55.5593 994.654 53.8176 995.401 52.6077C996.147 51.3978 997.227 50.7928 998.64 50.7928ZM995.7 57.8329C995.7 59.455 995.847 60.7248 996.14 61.6422L1000.58 52.8071C1000.11 52.1822 999.467 51.8698 998.64 51.8698C997.72 51.8698 997 52.3617 996.48 53.3456C995.96 54.3162 995.7 55.812 995.7 57.8329ZM998.64 63.7961C999.574 63.7961 1000.3 63.3108 1000.82 62.3402C1001.34 61.3563 1001.6 59.8539 1001.6 57.8329C1001.6 56.1178 1001.43 54.7882 1001.1 53.8442L996.66 62.759C997.14 63.4504 997.8 63.7961 998.64 63.7961Z" fill="url(#paint89_linear_175_198)"/>
<path d="M999.84 86.4293H1002.78V87.4864H995.161V86.4293H998.56V75.221L995.321 77.1555L994.761 76.2581L998.76 73.785H999.84V86.4293Z" fill="url(#paint90_linear_175_198)"/>
<path d="M999.84 109.222H1002.78V110.279H995.161V109.222H998.56V98.0138L995.321 99.9483L994.761 99.0509L998.76 96.5778H999.84V109.222Z" fill="url(#paint91_linear_175_198)"/>
<path d="M998.64 119.171C1000.07 119.171 1001.15 119.776 1001.88 120.986C1002.63 122.183 1003 123.924 1003 126.211C1003 128.498 1002.63 130.247 1001.88 131.457C1001.15 132.666 1000.07 133.271 998.64 133.271C997.227 133.271 996.147 132.666 995.401 131.457C994.654 130.247 994.281 128.498 994.281 126.211C994.281 123.938 994.654 122.196 995.401 120.986C996.147 119.776 997.227 119.171 998.64 119.171ZM995.7 126.211C995.7 127.833 995.847 129.103 996.14 130.021L1000.58 121.186C1000.11 120.561 999.467 120.248 998.64 120.248C997.72 120.248 997 120.74 996.48 121.724C995.96 122.695 995.7 124.19 995.7 126.211ZM998.64 132.174C999.574 132.174 1000.3 131.689 1000.82 130.719C1001.34 129.735 1001.6 128.232 1001.6 126.211C1001.6 124.496 1001.43 123.167 1001.1 122.223L996.66 131.137C997.14 131.829 997.8 132.174 998.64 132.174Z" fill="url(#paint92_linear_175_198)"/>
<path d="M998.64 141.964C1000.07 141.964 1001.15 142.569 1001.88 143.779C1002.63 144.976 1003 146.717 1003 149.004C1003 151.291 1002.63 153.039 1001.88 154.249C1001.15 155.459 1000.07 156.064 998.64 156.064C997.227 156.064 996.147 155.459 995.401 154.249C994.654 153.039 994.281 151.291 994.281 149.004C994.281 146.731 994.654 144.989 995.401 143.779C996.147 142.569 997.227 141.964 998.64 141.964ZM995.7 149.004C995.7 150.626 995.847 151.896 996.14 152.813L1000.58 143.978C1000.11 143.353 999.467 143.041 998.64 143.041C997.72 143.041 997 143.533 996.48 144.517C995.96 145.487 995.7 146.983 995.7 149.004ZM998.64 154.967C999.574 154.967 1000.3 154.482 1000.82 153.511C1001.34 152.528 1001.6 151.025 1001.6 149.004C1001.6 147.289 1001.43 145.959 1001.1 145.015L996.66 153.93C997.14 154.622 997.8 154.967 998.64 154.967Z" fill="url(#paint93_linear_175_198)"/>
</g>
<defs>
<filter id="filter0_f_175_198" x="-535.19" y="-658.19" width="2141.38" height="1500.38" filterUnits="userSpaceOnUse" color-interpolation-filters="sRGB">
<feFlood flood-opacity="0" result="BackgroundImageFix"/>
<feBlend mode="normal" in="SourceGraphic" in2="BackgroundImageFix" result="shape"/>
<feGaussianBlur stdDeviation="200.095" result="effect1_foregroundBlur_175_198"/>
</filter>
<linearGradient id="paint0_linear_175_198" x1="75.5" y1="328" x2="75.5" y2="639.381" gradientUnits="userSpaceOnUse">
<stop stop-color="#F7DD43"/>
<stop offset="1" stop-color="#F7DD43" stop-opacity="0"/>
</linearGradient>
<linearGradient id="paint1_linear_175_198" x1="75.5" y1="328" x2="75.5" y2="639.381" gradientUnits="userSpaceOnUse">
<stop stop-color="#F7DD43"/>
<stop offset="1" stop-color="#F7DD43" stop-opacity="0"/>
</linearGradient>
<linearGradient id="paint2_linear_175_198" x1="75.5" y1="328" x2="75.5" y2="639.381" gradientUnits="userSpaceOnUse">
<stop stop-color="#F7DD43"/>
<stop offset="1" stop-color="#F7DD43" stop-opacity="0"/>
</linearGradient>
<linearGradient id="paint3_linear_175_198" x1="75.5" y1="328" x2="75.5" y2="639.381" gradientUnits="userSpaceOnUse">
<stop stop-color="#F7DD43"/>
<stop offset="1" stop-color="#F7DD43" stop-opacity="0"/>
</linearGradient>
<linearGradient id="paint4_linear_175_198" x1="75.5" y1="328" x2="75.5" y2="639.381" gradientUnits="userSpaceOnUse">
<stop stop-color="#F7DD43"/>
<stop offset="1" stop-color="#F7DD43" stop-opacity="0"/>
</linearGradient>
<linearGradient id="paint5_linear_175_198" x1="75.5" y1="328" x2="75.5" y2="639.381" gradientUnits="userSpaceOnUse">
<stop stop-color="#F7DD43"/>
<stop offset="1" stop-color="#F7DD43" stop-opacity="0"/>
</linearGradient>
<linearGradient id="paint6_linear_175_198" x1="75.5" y1="328" x2="75.5" y2="639.381" gradientUnits="userSpaceOnUse">
<stop stop-color="#F7DD43"/>
<stop offset="1" stop-color="#F7DD43" stop-opacity="0"/>
</linearGradient>
<linearGradient id="paint7_linear_175_198" x1="75.5" y1="328" x2="75.5" y2="639.381" gradientUnits="userSpaceOnUse">
<stop stop-color="#F7DD43"/>
<stop offset="1" stop-color="#F7DD43" stop-opacity="0"/>
</linearGradient>
<linearGradient id="paint8_linear_175_198" x1="75.5" y1="328" x2="75.5" y2="639.381" gradientUnits="userSpaceOnUse">
<stop stop-color="#F7DD43"/>
<stop offset="1" stop-color="#F7DD43" stop-opacity="0"/>
</linearGradient>
<linearGradient id="paint9_linear_175_198" x1="75.5" y1="328" x2="75.5" y2="639.381" gradientUnits="userSpaceOnUse">
<stop stop-color="#F7DD43"/>
<stop offset="1" stop-color="#F7DD43" stop-opacity="0"/>
</linearGradient>
<linearGradient id="paint10_linear_175_198" x1="75.5" y1="328" x2="75.5" y2="639.381" gradientUnits="userSpaceOnUse">
<stop stop-color="#F7DD43"/>
<stop offset="1" stop-color="#F7DD43" stop-opacity="0"/>
</linearGradient>
<linearGradient id="paint11_linear_175_198" x1="75.5" y1="328" x2="75.5" y2="639.381" gradientUnits="userSpaceOnUse">
<stop stop-color="#F7DD43"/>
<stop offset="1" stop-color="#F7DD43" stop-opacity="0"/>
</linearGradient>
<linearGradient id="paint12_linear_175_198" x1="75.5" y1="328" x2="75.5" y2="639.381" gradientUnits="userSpaceOnUse">
<stop stop-color="#F7DD43"/>
<stop offset="1" stop-color="#F7DD43" stop-opacity="0"/>
</linearGradient>
<linearGradient id="paint13_linear_175_198" x1="75.5" y1="328" x2="75.5" y2="639.381" gradientUnits="userSpaceOnUse">
<stop stop-color="#F7DD43"/>
<stop offset="1" stop-color="#F7DD43" stop-opacity="0"/>
</linearGradient>
<linearGradient id="paint14_linear_175_198" x1="75.5" y1="328" x2="75.5" y2="639.381" gradientUnits="userSpaceOnUse">
<stop stop-color="#F7DD43"/>
<stop offset="1" stop-color="#F7DD43" stop-opacity="0"/>
</linearGradient>
<linearGradient id="paint15_linear_175_198" x1="75.5" y1="328" x2="75.5" y2="639.381" gradientUnits="userSpaceOnUse">
<stop stop-color="#F7DD43"/>
<stop offset="1" stop-color="#F7DD43" stop-opacity="0"/>
</linearGradient>
<linearGradient id="paint16_linear_175_198" x1="75.5" y1="328" x2="75.5" y2="639.381" gradientUnits="userSpaceOnUse">
<stop stop-color="#F7DD43"/>
<stop offset="1" stop-color="#F7DD43" stop-opacity="0"/>
</linearGradient>
<linearGradient id="paint17_linear_175_198" x1="75.5" y1="328" x2="75.5" y2="639.381" gradientUnits="userSpaceOnUse">
<stop stop-color="#F7DD43"/>
<stop offset="1" stop-color="#F7DD43" stop-opacity="0"/>
</linearGradient>
<linearGradient id="paint18_linear_175_198" x1="75.5" y1="328" x2="75.5" y2="639.381" gradientUnits="userSpaceOnUse">
<stop stop-color="#F7DD43"/>
<stop offset="1" stop-color="#F7DD43" stop-opacity="0"/>
</linearGradient>
<linearGradient id="paint19_linear_175_198" x1="75.5" y1="328" x2="75.5" y2="639.381" gradientUnits="userSpaceOnUse">
<stop stop-color="#F7DD43"/>
<stop offset="1" stop-color="#F7DD43" stop-opacity="0"/>
</linearGradient>
<linearGradient id="paint20_linear_175_198" x1="75.5" y1="328" x2="75.5" y2="639.381" gradientUnits="userSpaceOnUse">
<stop stop-color="#F7DD43"/>
<stop offset="1" stop-color="#F7DD43" stop-opacity="0"/>
</linearGradient>
<linearGradient id="paint21_linear_175_198" x1="75.5" y1="328" x2="75.5" y2="639.381" gradientUnits="userSpaceOnUse">
<stop stop-color="#F7DD43"/>
<stop offset="1" stop-color="#F7DD43" stop-opacity="0"/>
</linearGradient>
<linearGradient id="paint22_linear_175_198" x1="75.5" y1="328" x2="75.5" y2="639.381" gradientUnits="userSpaceOnUse">
<stop stop-color="#F7DD43"/>
<stop offset="1" stop-color="#F7DD43" stop-opacity="0"/>
</linearGradient>
<linearGradient id="paint23_linear_175_198" x1="75.5" y1="328" x2="75.5" y2="639.381" gradientUnits="userSpaceOnUse">
<stop stop-color="#F7DD43"/>
<stop offset="1" stop-color="#F7DD43" stop-opacity="0"/>
</linearGradient>
<linearGradient id="paint24_linear_175_198" x1="75.5" y1="328" x2="75.5" y2="639.381" gradientUnits="userSpaceOnUse">
<stop stop-color="#F7DD43"/>
<stop offset="1" stop-color="#F7DD43" stop-opacity="0"/>
</linearGradient>
<linearGradient id="paint25_linear_175_198" x1="75.5" y1="328" x2="75.5" y2="639.381" gradientUnits="userSpaceOnUse">
<stop stop-color="#F7DD43"/>
<stop offset="1" stop-color="#F7DD43" stop-opacity="0"/>
</linearGradient>
<linearGradient id="paint26_linear_175_198" x1="75.5" y1="328" x2="75.5" y2="639.381" gradientUnits="userSpaceOnUse">
<stop stop-color="#F7DD43"/>
<stop offset="1" stop-color="#F7DD43" stop-opacity="0"/>
</linearGradient>
<linearGradient id="paint27_linear_175_198" x1="75.5" y1="328" x2="75.5" y2="639.381" gradientUnits="userSpaceOnUse">
<stop stop-color="#F7DD43"/>
<stop offset="1" stop-color="#F7DD43" stop-opacity="0"/>
</linearGradient>
<linearGradient id="paint28_linear_175_198" x1="75.5" y1="328" x2="75.5" y2="639.381" gradientUnits="userSpaceOnUse">
<stop stop-color="#F7DD43"/>
<stop offset="1" stop-color="#F7DD43" stop-opacity="0"/>
</linearGradient>
<linearGradient id="paint29_linear_175_198" x1="75.5" y1="328" x2="75.5" y2="639.381" gradientUnits="userSpaceOnUse">
<stop stop-color="#F7DD43"/>
<stop offset="1" stop-color="#F7DD43" stop-opacity="0"/>
</linearGradient>
<linearGradient id="paint30_linear_175_198" x1="75.5" y1="328" x2="75.5" y2="639.381" gradientUnits="userSpaceOnUse">
<stop stop-color="#F7DD43"/>
<stop offset="1" stop-color="#F7DD43" stop-opacity="0"/>
</linearGradient>
<linearGradient id="paint31_linear_175_198" x1="75.5" y1="328" x2="75.5" y2="639.381" gradientUnits="userSpaceOnUse">
<stop stop-color="#F7DD43"/>
<stop offset="1" stop-color="#F7DD43" stop-opacity="0"/>
</linearGradient>
<linearGradient id="paint32_linear_175_198" x1="75.5" y1="328" x2="75.5" y2="639.381" gradientUnits="userSpaceOnUse">
<stop stop-color="#F7DD43"/>
<stop offset="1" stop-color="#F7DD43" stop-opacity="0"/>
</linearGradient>
<linearGradient id="paint33_linear_175_198" x1="75.5" y1="328" x2="75.5" y2="639.381" gradientUnits="userSpaceOnUse">
<stop stop-color="#F7DD43"/>
<stop offset="1" stop-color="#F7DD43" stop-opacity="0"/>
</linearGradient>
<linearGradient id="paint34_linear_175_198" x1="75.5" y1="328" x2="75.5" y2="639.381" gradientUnits="userSpaceOnUse">
<stop stop-color="#F7DD43"/>
<stop offset="1" stop-color="#F7DD43" stop-opacity="0"/>
</linearGradient>
<linearGradient id="paint35_linear_175_198" x1="75.5" y1="328" x2="75.5" y2="639.381" gradientUnits="userSpaceOnUse">
<stop stop-color="#F7DD43"/>
<stop offset="1" stop-color="#F7DD43" stop-opacity="0"/>
</linearGradient>
<linearGradient id="paint36_linear_175_198" x1="75.5" y1="328" x2="75.5" y2="639.381" gradientUnits="userSpaceOnUse">
<stop stop-color="#F7DD43"/>
<stop offset="1" stop-color="#F7DD43" stop-opacity="0"/>
</linearGradient>
<linearGradient id="paint37_linear_175_198" x1="75.5" y1="328" x2="75.5" y2="639.381" gradientUnits="userSpaceOnUse">
<stop stop-color="#F7DD43"/>
<stop offset="1" stop-color="#F7DD43" stop-opacity="0"/>
</linearGradient>
<linearGradient id="paint38_linear_175_198" x1="75.5" y1="328" x2="75.5" y2="639.381" gradientUnits="userSpaceOnUse">
<stop stop-color="#F7DD43"/>
<stop offset="1" stop-color="#F7DD43" stop-opacity="0"/>
</linearGradient>
<linearGradient id="paint39_linear_175_198" x1="75.5" y1="328" x2="75.5" y2="639.381" gradientUnits="userSpaceOnUse">
<stop stop-color="#F7DD43"/>
<stop offset="1" stop-color="#F7DD43" stop-opacity="0"/>
</linearGradient>
<linearGradient id="paint40_linear_175_198" x1="75.5" y1="328" x2="75.5" y2="639.381" gradientUnits="userSpaceOnUse">
<stop stop-color="#F7DD43"/>
<stop offset="1" stop-color="#F7DD43" stop-opacity="0"/>
</linearGradient>
<linearGradient id="paint41_linear_175_198" x1="75.5" y1="328" x2="75.5" y2="639.381" gradientUnits="userSpaceOnUse">
<stop stop-color="#F7DD43"/>
<stop offset="1" stop-color="#F7DD43" stop-opacity="0"/>
</linearGradient>
<linearGradient id="paint42_linear_175_198" x1="75.5" y1="328" x2="75.5" y2="639.381" gradientUnits="userSpaceOnUse">
<stop stop-color="#F7DD43"/>
<stop offset="1" stop-color="#F7DD43" stop-opacity="0"/>
</linearGradient>
<linearGradient id="paint43_linear_175_198" x1="75.5" y1="328" x2="75.5" y2="639.381" gradientUnits="userSpaceOnUse">
<stop stop-color="#F7DD43"/>
<stop offset="1" stop-color="#F7DD43" stop-opacity="0"/>
</linearGradient>
<linearGradient id="paint44_linear_175_198" x1="75.5" y1="328" x2="75.5" y2="639.381" gradientUnits="userSpaceOnUse">
<stop stop-color="#F7DD43"/>
<stop offset="1" stop-color="#F7DD43" stop-opacity="0"/>
</linearGradient>
<linearGradient id="paint45_linear_175_198" x1="75.5" y1="328" x2="75.5" y2="639.381" gradientUnits="userSpaceOnUse">
<stop stop-color="#F7DD43"/>
<stop offset="1" stop-color="#F7DD43" stop-opacity="0"/>
</linearGradient>
<linearGradient id="paint46_linear_175_198" x1="75.5" y1="328" x2="75.5" y2="639.381" gradientUnits="userSpaceOnUse">
<stop stop-color="#F7DD43"/>
<stop offset="1" stop-color="#F7DD43" stop-opacity="0"/>
</linearGradient>
<linearGradient id="paint47_linear_175_198" x1="961.5" y1="28" x2="961.5" y2="326.818" gradientUnits="userSpaceOnUse">
<stop stop-color="#F7DD43"/>
<stop offset="1" stop-color="#F7DD43" stop-opacity="0"/>
</linearGradient>
<linearGradient id="paint48_linear_175_198" x1="961.5" y1="28" x2="961.5" y2="326.818" gradientUnits="userSpaceOnUse">
<stop stop-color="#F7DD43"/>
<stop offset="1" stop-color="#F7DD43" stop-opacity="0"/>
</linearGradient>
<linearGradient id="paint49_linear_175_198" x1="961.5" y1="28" x2="961.5" y2="326.818" gradientUnits="userSpaceOnUse">
<stop stop-color="#F7DD43"/>
<stop offset="1" stop-color="#F7DD43" stop-opacity="0"/>
</linearGradient>
<linearGradient id="paint50_linear_175_198" x1="961.5" y1="28" x2="961.5" y2="326.818" gradientUnits="userSpaceOnUse">
<stop stop-color="#F7DD43"/>
<stop offset="1" stop-color="#F7DD43" stop-opacity="0"/>
</linearGradient>
<linearGradient id="paint51_linear_175_198" x1="961.5" y1="28" x2="961.5" y2="326.818" gradientUnits="userSpaceOnUse">
<stop stop-color="#F7DD43"/>
<stop offset="1" stop-color="#F7DD43" stop-opacity="0"/>
</linearGradient>
<linearGradient id="paint52_linear_175_198" x1="961.5" y1="28" x2="961.5" y2="326.818" gradientUnits="userSpaceOnUse">
<stop stop-color="#F7DD43"/>
<stop offset="1" stop-color="#F7DD43" stop-opacity="0"/>
</linearGradient>
<linearGradient id="paint53_linear_175_198" x1="961.5" y1="28" x2="961.5" y2="326.818" gradientUnits="userSpaceOnUse">
<stop stop-color="#F7DD43"/>
<stop offset="1" stop-color="#F7DD43" stop-opacity="0"/>
</linearGradient>
<linearGradient id="paint54_linear_175_198" x1="961.5" y1="28" x2="961.5" y2="326.818" gradientUnits="userSpaceOnUse">
<stop stop-color="#F7DD43"/>
<stop offset="1" stop-color="#F7DD43" stop-opacity="0"/>
</linearGradient>
<linearGradient id="paint55_linear_175_198" x1="961.5" y1="28" x2="961.5" y2="326.818" gradientUnits="userSpaceOnUse">
<stop stop-color="#F7DD43"/>
<stop offset="1" stop-color="#F7DD43" stop-opacity="0"/>
</linearGradient>
<linearGradient id="paint56_linear_175_198" x1="961.5" y1="28" x2="961.5" y2="326.818" gradientUnits="userSpaceOnUse">
<stop stop-color="#F7DD43"/>
<stop offset="1" stop-color="#F7DD43" stop-opacity="0"/>
</linearGradient>
<linearGradient id="paint57_linear_175_198" x1="961.5" y1="28" x2="961.5" y2="326.818" gradientUnits="userSpaceOnUse">
<stop stop-color="#F7DD43"/>
<stop offset="1" stop-color="#F7DD43" stop-opacity="0"/>
</linearGradient>
<linearGradient id="paint58_linear_175_198" x1="961.5" y1="28" x2="961.5" y2="326.818" gradientUnits="userSpaceOnUse">
<stop stop-color="#F7DD43"/>
<stop offset="1" stop-color="#F7DD43" stop-opacity="0"/>
</linearGradient>
<linearGradient id="paint59_linear_175_198" x1="961.5" y1="28" x2="961.5" y2="326.818" gradientUnits="userSpaceOnUse">
<stop stop-color="#F7DD43"/>
<stop offset="1" stop-color="#F7DD43" stop-opacity="0"/>
</linearGradient>
<linearGradient id="paint60_linear_175_198" x1="961.5" y1="28" x2="961.5" y2="326.818" gradientUnits="userSpaceOnUse">
<stop stop-color="#F7DD43"/>
<stop offset="1" stop-color="#F7DD43" stop-opacity="0"/>
</linearGradient>
<linearGradient id="paint61_linear_175_198" x1="961.5" y1="28" x2="961.5" y2="326.818" gradientUnits="userSpaceOnUse">
<stop stop-color="#F7DD43"/>
<stop offset="1" stop-color="#F7DD43" stop-opacity="0"/>
</linearGradient>
<linearGradient id="paint62_linear_175_198" x1="961.5" y1="28" x2="961.5" y2="326.818" gradientUnits="userSpaceOnUse">
<stop stop-color="#F7DD43"/>
<stop offset="1" stop-color="#F7DD43" stop-opacity="0"/>
</linearGradient>
<linearGradient id="paint63_linear_175_198" x1="961.5" y1="28" x2="961.5" y2="326.818" gradientUnits="userSpaceOnUse">
<stop stop-color="#F7DD43"/>
<stop offset="1" stop-color="#F7DD43" stop-opacity="0"/>
</linearGradient>
<linearGradient id="paint64_linear_175_198" x1="961.5" y1="28" x2="961.5" y2="326.818" gradientUnits="userSpaceOnUse">
<stop stop-color="#F7DD43"/>
<stop offset="1" stop-color="#F7DD43" stop-opacity="0"/>
</linearGradient>
<linearGradient id="paint65_linear_175_198" x1="961.5" y1="28" x2="961.5" y2="326.818" gradientUnits="userSpaceOnUse">
<stop stop-color="#F7DD43"/>
<stop offset="1" stop-color="#F7DD43" stop-opacity="0"/>
</linearGradient>
<linearGradient id="paint66_linear_175_198" x1="961.5" y1="28" x2="961.5" y2="326.818" gradientUnits="userSpaceOnUse">
<stop stop-color="#F7DD43"/>
<stop offset="1" stop-color="#F7DD43" stop-opacity="0"/>
</linearGradient>
<linearGradient id="paint67_linear_175_198" x1="961.5" y1="28" x2="961.5" y2="326.818" gradientUnits="userSpaceOnUse">
<stop stop-color="#F7DD43"/>
<stop offset="1" stop-color="#F7DD43" stop-opacity="0"/>
</linearGradient>
<linearGradient id="paint68_linear_175_198" x1="961.5" y1="28" x2="961.5" y2="326.818" gradientUnits="userSpaceOnUse">
<stop stop-color="#F7DD43"/>
<stop offset="1" stop-color="#F7DD43" stop-opacity="0"/>
</linearGradient>
<linearGradient id="paint69_linear_175_198" x1="961.5" y1="28" x2="961.5" y2="326.818" gradientUnits="userSpaceOnUse">
<stop stop-color="#F7DD43"/>
<stop offset="1" stop-color="#F7DD43" stop-opacity="0"/>
</linearGradient>
<linearGradient id="paint70_linear_175_198" x1="961.5" y1="28" x2="961.5" y2="326.818" gradientUnits="userSpaceOnUse">
<stop stop-color="#F7DD43"/>
<stop offset="1" stop-color="#F7DD43" stop-opacity="0"/>
</linearGradient>
<linearGradient id="paint71_linear_175_198" x1="961.5" y1="28" x2="961.5" y2="326.818" gradientUnits="userSpaceOnUse">
<stop stop-color="#F7DD43"/>
<stop offset="1" stop-color="#F7DD43" stop-opacity="0"/>
</linearGradient>
<linearGradient id="paint72_linear_175_198" x1="961.5" y1="28" x2="961.5" y2="326.818" gradientUnits="userSpaceOnUse">
<stop stop-color="#F7DD43"/>
<stop offset="1" stop-color="#F7DD43" stop-opacity="0"/>
</linearGradient>
<linearGradient id="paint73_linear_175_198" x1="961.5" y1="28" x2="961.5" y2="326.818" gradientUnits="userSpaceOnUse">
<stop stop-color="#F7DD43"/>
<stop offset="1" stop-color="#F7DD43" stop-opacity="0"/>
</linearGradient>
<linearGradient id="paint74_linear_175_198" x1="961.5" y1="28" x2="961.5" y2="326.818" gradientUnits="userSpaceOnUse">
<stop stop-color="#F7DD43"/>
<stop offset="1" stop-color="#F7DD43" stop-opacity="0"/>
</linearGradient>
<linearGradient id="paint75_linear_175_198" x1="961.5" y1="28" x2="961.5" y2="326.818" gradientUnits="userSpaceOnUse">
<stop stop-color="#F7DD43"/>
<stop offset="1" stop-color="#F7DD43" stop-opacity="0"/>
</linearGradient>
<linearGradient id="paint76_linear_175_198" x1="961.5" y1="28" x2="961.5" y2="326.818" gradientUnits="userSpaceOnUse">
<stop stop-color="#F7DD43"/>
<stop offset="1" stop-color="#F7DD43" stop-opacity="0"/>
</linearGradient>
<linearGradient id="paint77_linear_175_198" x1="961.5" y1="28" x2="961.5" y2="326.818" gradientUnits="userSpaceOnUse">
<stop stop-color="#F7DD43"/>
<stop offset="1" stop-color="#F7DD43" stop-opacity="0"/>
</linearGradient>
<linearGradient id="paint78_linear_175_198" x1="961.5" y1="28" x2="961.5" y2="326.818" gradientUnits="userSpaceOnUse">
<stop stop-color="#F7DD43"/>
<stop offset="1" stop-color="#F7DD43" stop-opacity="0"/>
</linearGradient>
<linearGradient id="paint79_linear_175_198" x1="961.5" y1="28" x2="961.5" y2="326.818" gradientUnits="userSpaceOnUse">
<stop stop-color="#F7DD43"/>
<stop offset="1" stop-color="#F7DD43" stop-opacity="0"/>
</linearGradient>
<linearGradient id="paint80_linear_175_198" x1="961.5" y1="28" x2="961.5" y2="326.818" gradientUnits="userSpaceOnUse">
<stop stop-color="#F7DD43"/>
<stop offset="1" stop-color="#F7DD43" stop-opacity="0"/>
</linearGradient>
<linearGradient id="paint81_linear_175_198" x1="961.5" y1="28" x2="961.5" y2="326.818" gradientUnits="userSpaceOnUse">
<stop stop-color="#F7DD43"/>
<stop offset="1" stop-color="#F7DD43" stop-opacity="0"/>
</linearGradient>
<linearGradient id="paint82_linear_175_198" x1="961.5" y1="28" x2="961.5" y2="326.818" gradientUnits="userSpaceOnUse">
<stop stop-color="#F7DD43"/>
<stop offset="1" stop-color="#F7DD43" stop-opacity="0"/>
</linearGradient>
<linearGradient id="paint83_linear_175_198" x1="961.5" y1="28" x2="961.5" y2="326.818" gradientUnits="userSpaceOnUse">
<stop stop-color="#F7DD43"/>
<stop offset="1" stop-color="#F7DD43" stop-opacity="0"/>
</linearGradient>
<linearGradient id="paint84_linear_175_198" x1="961.5" y1="28" x2="961.5" y2="326.818" gradientUnits="userSpaceOnUse">
<stop stop-color="#F7DD43"/>
<stop offset="1" stop-color="#F7DD43" stop-opacity="0"/>
</linearGradient>
<linearGradient id="paint85_linear_175_198" x1="961.5" y1="28" x2="961.5" y2="326.818" gradientUnits="userSpaceOnUse">
<stop stop-color="#F7DD43"/>
<stop offset="1" stop-color="#F7DD43" stop-opacity="0"/>
</linearGradient>
<linearGradient id="paint86_linear_175_198" x1="961.5" y1="28" x2="961.5" y2="326.818" gradientUnits="userSpaceOnUse">
<stop stop-color="#F7DD43"/>
<stop offset="1" stop-color="#F7DD43" stop-opacity="0"/>
</linearGradient>
<linearGradient id="paint87_linear_175_198" x1="961.5" y1="28" x2="961.5" y2="326.818" gradientUnits="userSpaceOnUse">
<stop stop-color="#F7DD43"/>
<stop offset="1" stop-color="#F7DD43" stop-opacity="0"/>
</linearGradient>
<linearGradient id="paint88_linear_175_198" x1="961.5" y1="28" x2="961.5" y2="326.818" gradientUnits="userSpaceOnUse">
<stop stop-color="#F7DD43"/>
<stop offset="1" stop-color="#F7DD43" stop-opacity="0"/>
</linearGradient>
<linearGradient id="paint89_linear_175_198" x1="961.5" y1="28" x2="961.5" y2="326.818" gradientUnits="userSpaceOnUse">
<stop stop-color="#F7DD43"/>
<stop offset="1" stop-color="#F7DD43" stop-opacity="0"/>
</linearGradient>
<linearGradient id="paint90_linear_175_198" x1="961.5" y1="28" x2="961.5" y2="326.818" gradientUnits="userSpaceOnUse">
<stop stop-color="#F7DD43"/>
<stop offset="1" stop-color="#F7DD43" stop-opacity="0"/>
</linearGradient>
<linearGradient id="paint91_linear_175_198" x1="961.5" y1="28" x2="961.5" y2="326.818" gradientUnits="userSpaceOnUse">
<stop stop-color="#F7DD43"/>
<stop offset="1" stop-color="#F7DD43" stop-opacity="0"/>
</linearGradient>
<linearGradient id="paint92_linear_175_198" x1="961.5" y1="28" x2="961.5" y2="326.818" gradientUnits="userSpaceOnUse">
<stop stop-color="#F7DD43"/>
<stop offset="1" stop-color="#F7DD43" stop-opacity="0"/>
</linearGradient>
<linearGradient id="paint93_linear_175_198" x1="961.5" y1="28" x2="961.5" y2="326.818" gradientUnits="userSpaceOnUse">
<stop stop-color="#F7DD43"/>
<stop offset="1" stop-color="#F7DD43" stop-opacity="0"/>
</linearGradient>
</defs>
</svg>
